<?xml version="1.0" standalone="no"?>
<!DOCTYPE svg PUBLIC "-//W3C//DTD SVG 20010904//EN"
 "http://www.w3.org/TR/2001/REC-SVG-20010904/DTD/svg10.dtd">
<svg version="1.0" xmlns="http://www.w3.org/2000/svg"
 width="173.000000pt" height="174.000000pt" viewBox="0 0 173.000000 174.000000"
 preserveAspectRatio="xMidYMid meet">

<g transform="translate(0.000000,174.000000) scale(0.100000,-0.100000)"
fill="#000000" stroke="none">
<path d="M0 870 l0 -870 865 0 865 0 0 870 0 870 -865 0 -865 0 0 -870z m1090
770 l5 -74 44 60 c24 32 46 61 48 63 2 3 7 0 12 -5 11 -11 -16 -154 -31 -169
-11 -10 -8 29 7 105 7 35 7 35 -34 -20 -43 -56 -60 -70 -62 -51 -1 6 -3 16 -4
21 -1 6 -3 34 -4 63 l-2 52 -23 -60 c-13 -32 -29 -61 -35 -63 -15 -5 -15 -5
13 64 12 32 26 67 30 77 14 40 31 10 36 -63z m-483 1 c37 -54 27 -113 -23
-131 -48 -19 -96 20 -110 87 -5 26 -1 37 20 58 37 37 83 32 113 -14z m224 -54
c-1 -12 -15 -9 -19 4 -3 6 1 10 8 8 6 -3 11 -8 11 -12z m654 -92 c33 -32 31
-67 -6 -110 -37 -42 -80 -47 -116 -13 -34 32 -30 73 11 114 41 41 77 44 111 9z
m-1177 -130 c22 -18 23 -18 52 10 39 37 38 20 -1 -23 l-29 -33 -65 57 c-35 31
-62 61 -59 66 4 6 23 -5 43 -24 20 -18 46 -42 59 -53z m1307 -180 l-60 -55 78
0 c44 0 77 -4 77 -10 0 -13 -177 -13 -184 -1 -7 10 122 121 139 121 5 -1 -17
-25 -50 -55z m-1529 23 c-21 -30 -20 -50 5 -82 41 -52 119 -24 119 43 0 19 3
22 11 14 16 -16 4 -58 -23 -83 -42 -38 -118 -18 -139 37 -12 32 6 93 27 93 13
0 13 -3 0 -22z m774 -63 l0 -35 -145 0 -145 0 0 35 0 35 145 0 145 0 0 -35z
m90 -110 l0 -145 -30 0 -30 0 0 145 0 145 30 0 30 0 0 -145z m110 0 l0 -145
-30 0 -30 0 0 145 0 145 30 0 30 0 0 -145z m120 0 l0 -145 -35 0 -35 0 0 145
0 145 35 0 35 0 0 -145z m-320 -5 l0 -30 -145 0 -145 0 0 30 0 30 145 0 145 0
0 -30z m0 -110 l0 -30 -145 0 -145 0 0 30 0 30 145 0 145 0 0 -30z m-707 -8
c41 -36 5 -112 -52 -112 -53 0 -83 78 -43 112 33 29 60 29 95 0z m1537 -2 c26
-26 25 -58 -2 -87 -37 -40 -92 -25 -111 30 -7 19 8 56 27 69 21 14 66 8 86
-12z m-1050 -195 l0 -145 -35 0 -35 0 0 145 0 145 35 0 35 0 0 -145z m110 0
l0 -145 -30 0 -30 0 0 145 0 145 30 0 30 0 0 -145z m110 0 l0 -145 -30 0 -30
0 0 145 0 145 30 0 30 0 0 -145z m320 115 l0 -30 -145 0 -145 0 0 30 0 30 145
0 145 0 0 -30z m0 -110 l0 -30 -145 0 -145 0 0 30 0 30 145 0 145 0 0 -30z
m460 -135 c8 -9 9 -19 4 -24 -13 -11 -184 -1 -184 12 0 6 29 8 86 4 l87 -6
-43 37 c-24 20 -52 43 -62 50 -10 7 -18 20 -18 29 0 14 96 -61 130 -102z
m-1401 59 c23 -19 31 -34 30 -57 l0 -32 -19 42 c-22 49 -53 62 -97 41 -39 -18
-52 -61 -31 -99 17 -29 10 -41 -10 -16 -33 41 -19 107 27 132 39 21 66 18 100
-11z m941 -39 l0 -35 -145 0 -145 0 0 35 0 35 145 0 145 0 0 -35z m-810 -172
c0 -4 -26 -31 -57 -59 l-58 -52 24 -26 c14 -14 22 -29 18 -32 -3 -3 -19 9 -36
28 l-30 33 62 57 c60 55 77 66 77 51z m1077 -48 c47 -53 38 -114 -19 -134 -84
-30 -159 95 -91 149 35 27 79 21 110 -15z m-819 -135 c57 -53 -3 -171 -79
-155 -54 12 -74 68 -44 125 27 53 84 66 123 30z m545 -57 c40 -103 40 -103 29
-103 -5 0 -20 28 -33 63 l-23 62 -8 -40 c-4 -22 -7 -55 -7 -72 -1 -41 -21 -43
-43 -5 -10 15 -28 41 -42 57 l-24 30 14 -60 c16 -71 17 -75 6 -75 -8 0 -42
132 -42 160 0 26 29 4 65 -49 36 -53 41 -57 47 -38 3 12 6 45 7 73 1 48 6 64
21 64 4 0 19 -30 33 -67z m-343 -153 c0 -5 -7 -10 -15 -10 -8 0 -15 5 -15 10
0 6 7 10 15 10 8 0 15 -4 15 -10z"/>
<path d="M507 1642 c-29 -32 -14 -89 29 -112 19 -11 27 -10 49 4 31 21 33 63
4 100 -24 30 -59 34 -82 8z"/>
<path d="M1403 1488 c-12 -6 -27 -24 -34 -40 -29 -69 44 -108 96 -52 30 32 32
65 7 87 -21 19 -37 20 -69 5z"/>
<path d="M1346 384 c-51 -50 31 -148 90 -109 33 21 31 60 -5 96 -33 32 -62 37
-85 13z"/>
<path d="M537 232 c-9 -10 -20 -33 -23 -50 -13 -65 55 -97 95 -46 23 29 28 83
9 102 -18 18 -63 14 -81 -6z"/>
</g>
</svg>
